<svg width="72" height="17" viewBox="0 0 72 17" fill="none" xmlns="http://www.w3.org/2000/svg">
<g opacity="0.7">
<path fill-rule="evenodd" clip-rule="evenodd" d="M8.55192 9.09309C10.0143 9.32084 10.212 10.1938 10.3302 11.0062L10.3499 11.1447L10.3633 11.239L10.4345 11.7171C10.5738 12.63 10.8644 14.5249 10.8644 15.5138C10.8644 15.7609 10.8429 15.9506 10.8035 16.0548C10.7379 16.2154 10.5467 16.3696 10.2827 16.498C9.64397 16.6566 8.97631 16.7424 8.28858 16.7424C8.21576 16.7424 8.14412 16.7389 8.07222 16.7367C7.79428 16.6571 7.58538 16.5241 7.47478 16.3424C7.14082 15.794 7.1207 14.5721 7.11401 13.1442L7.11324 12.9786L7.11054 12.5506C7.09966 11.039 7.09032 9.73563 7.63471 9.26793C7.84555 9.08804 8.14514 9.02849 8.55192 9.09309ZM5.36359 12.3841C5.68049 12.3662 5.88429 13.9387 5.92524 15.1311C5.95394 15.9612 5.86754 16.3027 5.72957 16.4253C5.57336 16.3727 5.41986 16.3158 5.26861 16.254C5.16771 16.069 5.09059 15.7781 5.04159 15.3969C4.89201 14.1993 5.02195 12.4053 5.36359 12.3841ZM13.3084 14.734C13.2886 14.8433 13.2607 14.9276 13.2264 14.9988C12.9554 15.2182 12.6706 15.4196 12.3726 15.6007C12.2777 15.6169 12.1934 15.6056 12.1522 15.5354C11.7572 14.8352 11.609 12.6388 11.9912 12.4476C12.4895 12.2048 13.3822 14.3543 13.3084 14.734ZM8.17062 0.257568C12.6202 0.257568 16.2386 3.81243 16.3384 8.23587L16.3404 8.38877V8.45945C16.3323 10.4576 15.6034 12.2856 14.4026 13.7005C14.359 13.6785 14.2795 13.6063 14.1356 13.3891C13.9866 13.1707 12.7021 11.1764 12.7021 8.89053C12.7021 8.44193 13.343 7.74117 13.9102 7.12608C14.3342 6.66322 14.7358 6.22663 14.8837 5.88349C15.0721 5.44071 14.9403 5.13155 14.7318 5.02675C14.5431 4.93361 14.2599 5.00155 14.0611 5.35772C13.7349 5.93418 13.6304 6.0419 13.1546 6.42759C12.6863 6.81308 11.942 7.20114 11.942 6.69882C11.942 6.42759 12.3566 5.81332 12.5614 5.38276C12.7706 4.94739 12.5451 4.63221 12.1132 4.63221C11.2651 4.63221 10.7021 5.72214 10.7021 6.09975C10.7021 6.47704 10.8835 6.53077 10.8835 6.97015C10.8835 7.41282 9.95301 7.987 9.07644 7.987C8.23251 7.987 7.74312 7.81469 7.54034 7.32921L7.51445 7.26105L7.45583 7.08611C7.2479 6.47303 7.09874 6.0284 6.83908 5.56373C6.70121 5.318 6.48848 5.14765 6.30449 4.99777C6.06403 4.80934 5.93929 4.63585 5.91324 4.50646C5.88924 4.37808 5.87632 4.13616 6.28739 3.57849C6.69758 3.024 6.75508 2.60511 6.54981 2.38897C6.47541 2.31208 6.34856 2.26282 6.18567 2.26282C5.89757 2.26282 5.49723 2.41682 5.08466 2.83984C4.44332 3.50282 4.80741 4.13228 4.80741 4.4086C4.80741 4.68474 4.68992 4.84094 4.30504 5.21662C3.91735 5.59397 3.78355 5.91749 3.73921 7.21773C3.72222 7.88768 3.60527 8.27333 3.50028 8.61528C3.40956 8.915 3.32612 9.19679 3.32162 9.60391C3.31443 10.0551 3.38887 10.3458 3.47574 10.6813C3.56103 10.9914 3.65162 11.3467 3.70966 11.941C3.80197 12.861 3.76988 13.6382 3.60204 14.4325L3.55725 14.6315L3.54678 14.6887C3.51241 14.8283 3.47155 14.9978 3.41633 15.0613C1.34847 13.5796 0 11.1597 0 8.42432C0 3.91434 3.65796 0.257568 8.17062 0.257568Z" fill="#F14635"/>
<path d="M47.5448 5.9092C48.3532 5.9092 48.9817 6.19799 49.4304 6.77558C49.879 7.35317 50.1032 8.14712 50.1032 9.15738V9.25139C50.1032 10.2382 49.8739 11.0262 49.4152 11.6156C48.9564 12.2049 48.337 12.4996 47.5569 12.4996C46.9547 12.4996 46.4595 12.2862 46.0715 11.8593V15.0662H44.0284V6.0267H45.9382L45.9988 6.61408C46.3909 6.14416 46.9062 5.9092 47.5448 5.9092ZM33.2979 5.9092C34.1345 5.9092 34.7953 6.10696 35.2804 6.50244C35.7654 6.89798 36.014 7.44033 36.0261 8.1295V10.943C36.0342 11.5265 36.1271 11.9729 36.305 12.2822V12.3821H34.2618C34.1891 12.2529 34.1244 12.063 34.0678 11.8124C33.692 12.2705 33.1665 12.4996 32.4915 12.4996C31.8731 12.4996 31.3477 12.3185 30.9152 11.9562C30.4827 11.594 30.2665 11.1388 30.2665 10.5906C30.2665 9.90141 30.5292 9.38059 31.0547 9.02818C31.5801 8.67576 32.344 8.49953 33.3464 8.49953H33.9769V8.16473C33.9769 7.58127 33.7162 7.28954 33.1948 7.28954C32.7098 7.28954 32.4673 7.52059 32.4673 7.98263H30.4241C30.4241 7.36785 30.6939 6.86861 31.2335 6.48483C31.7731 6.10109 32.4612 5.9092 33.2979 5.9092ZM39.9485 5.9092C40.8134 5.9092 41.5085 6.09913 42.034 6.47895C42.5595 6.85883 42.8222 7.35806 42.8222 7.97676H40.773C40.773 7.46773 40.4961 7.2132 39.9424 7.2132C39.7282 7.2132 39.5483 7.27095 39.4028 7.38644C39.2573 7.50199 39.1845 7.64587 39.1845 7.81819C39.1845 7.99443 39.2735 8.13733 39.4513 8.24695C39.6291 8.35663 39.9131 8.44668 40.3031 8.51715C40.6931 8.58767 41.0357 8.67185 41.3308 8.76973C42.317 9.09865 42.81 9.68799 42.81 10.5377C42.81 11.1173 42.5443 11.5892 42.0128 11.9533C41.4813 12.3175 40.7932 12.4996 39.9485 12.4996C39.3866 12.4996 38.8854 12.4017 38.4449 12.2059C38.0043 12.0101 37.6608 11.7438 37.4142 11.407C37.1677 11.0703 37.0444 10.7159 37.0444 10.3439H38.9542C38.9622 10.6376 39.0633 10.852 39.2573 10.9871C39.4513 11.1222 39.6998 11.1897 40.003 11.1897C40.2818 11.1897 40.4911 11.1349 40.6305 11.0253C40.77 10.9156 40.8396 10.7727 40.8396 10.5965C40.8396 10.4281 40.7488 10.293 40.5668 10.1912C40.3849 10.0894 40.0393 9.98363 39.5301 9.87401C39.0209 9.76438 38.6005 9.62045 38.2691 9.44226C37.9377 9.26412 37.685 9.04776 37.5112 8.79322C37.3375 8.53868 37.2505 8.24695 37.2505 7.91803C37.2505 7.33457 37.4991 6.85393 37.9962 6.47602C38.4934 6.09815 39.1441 5.9092 39.9485 5.9092ZM24.5981 3.34873V7.60085L27.4898 3.34873H30.121L26.8898 7.6126L29.8727 12.3821H27.3506L25.4711 9.19854L24.5981 10.1266V12.3821H22.4701V3.34873H24.5981ZM53.4071 6.0267V12.3821H51.3579V6.0267H53.4071ZM71.4245 6.0267V7.09569L68.5026 10.8549H71.4914V12.3821H65.9198V11.2778L68.8299 7.55387H65.4015L66.767 6.0267H71.4245ZM56.1467 10.332C56.7059 10.332 57.1583 10.7724 57.1583 11.3158C57.1583 11.859 56.7059 12.2995 56.1467 12.2995C55.5881 12.2995 55.1351 11.859 55.1351 11.3158C55.1351 10.7724 55.5881 10.332 56.1467 10.332ZM60.8916 3.34848V8.09503L61.0979 7.83329L62.642 5.99512H65.0977L62.7942 8.58366L65.2499 12.289H62.9035L61.4691 9.94479L60.8916 10.4974V12.289H58.8429V3.34848H60.8916ZM33.9769 9.55683H33.3828C32.6714 9.55683 32.3157 9.86618 32.3157 10.4849C32.3157 10.665 32.3783 10.8109 32.5036 10.9225C32.629 11.0341 32.7886 11.0899 32.9826 11.0899C33.2372 11.0899 33.4484 11.037 33.6162 10.9313C33.7839 10.8255 33.9041 10.7061 33.9769 10.573V9.55683ZM47.0416 7.43641C46.5566 7.43641 46.2332 7.60476 46.0715 7.94152V10.4438C46.2494 10.7962 46.5768 10.9724 47.0537 10.9724C47.7045 10.9724 48.0399 10.4281 48.0601 9.33949V9.12802C48.0601 8.0003 47.7207 7.43641 47.0416 7.43641ZM52.4104 3.34848C52.969 3.34848 53.4219 3.80987 53.4219 4.37904C53.4219 4.94821 52.969 5.4096 52.4104 5.4096C51.8517 5.4096 51.3988 4.94821 51.3988 4.37904C51.3988 3.80987 51.8517 3.34848 52.4104 3.34848Z" fill="black"/>
</g>
</svg>
