<svg width="80" height="78" viewBox="0 0 80 78" fill="none" xmlns="http://www.w3.org/2000/svg">
<g clip-path="url(#clip0_13_456)">
<path d="M48.3527 44.8037L42.4749 39.0804L48.3527 33.3571C48.5228 33.1914 48.5228 32.9203 48.3527 32.7547L46.4965 30.9473C46.3264 30.7816 46.048 30.7816 45.8778 30.9473L40 36.6706L34.1222 30.9473C33.952 30.7816 33.6736 30.7816 33.5035 30.9473L31.6473 32.7547C31.4772 32.9203 31.4772 33.1914 31.6473 33.3571L37.5251 39.0804L31.6473 44.8037C31.4772 44.9693 31.4772 45.2404 31.6473 45.4061L33.5035 47.2135C33.6736 47.3791 33.952 47.3791 34.1222 47.2135L40 41.4902L45.8778 47.2135C46.048 47.3791 46.3264 47.3791 46.4965 47.2135L48.3527 45.4061C48.5228 45.2404 48.5228 44.9693 48.3527 44.8037Z" fill="#BD7048"/>
<path d="M57.3241 22.2119C47.7572 12.8965 32.2428 12.8965 22.6759 22.2119C13.109 31.5273 13.109 46.6337 22.6759 55.9491C32.2428 65.2645 47.7572 65.2645 57.3241 55.9491C66.891 46.6337 66.891 31.5273 57.3241 22.2119ZM25.6148 53.0875C17.672 45.3535 17.672 32.8075 25.6148 25.0735C33.5576 17.3396 46.4424 17.3396 54.3852 25.0735C62.328 32.8075 62.328 45.3535 54.3852 53.0875C46.4424 60.8214 33.5576 60.8214 25.6148 53.0875Z" fill="#BD7048"/>
</g>
<defs>
<clipPath id="clip0_13_456">
<rect width="55.2687" height="55.2687" fill="white" transform="matrix(0.716463 0.697625 -0.716463 0.697625 40 0.523438)"/>
</clipPath>
</defs>
</svg>
