<svg width="39" height="39" viewBox="0 0 39 39" fill="none" xmlns="http://www.w3.org/2000/svg">
<path d="M16.495 25.0491C16.6071 25.2056 16.7549 25.3331 16.9261 25.421C17.0973 25.509 17.2871 25.5549 17.4795 25.5549C17.672 25.5549 17.8617 25.509 18.033 25.421C18.2042 25.3331 18.352 25.2056 18.4641 25.0491L26.485 13.928C26.6297 13.7262 26.485 13.4443 26.2374 13.4443H24.4512C24.0627 13.4443 23.6933 13.631 23.4647 13.9509L17.4814 22.2536L14.7697 18.4907C14.5412 18.1746 14.1756 17.9842 13.7833 17.9842H11.9971C11.7495 17.9842 11.6048 18.266 11.7495 18.4679L16.495 25.0491Z" fill="#BD7048"/>
<path d="M33.5156 4.26562H5.48438C4.81025 4.26562 4.26562 4.81025 4.26562 5.48438V33.5156C4.26562 34.1897 4.81025 34.7344 5.48438 34.7344H33.5156C34.1897 34.7344 34.7344 34.1897 34.7344 33.5156V5.48438C34.7344 4.81025 34.1897 4.26562 33.5156 4.26562ZM31.9922 31.9922H7.00781V7.00781H31.9922V31.9922Z" fill="#BD7048"/>
</svg>
