<svg width="44" height="44" viewBox="0 0 44 44" fill="none" xmlns="http://www.w3.org/2000/svg">
<path d="M40.6055 17.7031H29.6055C29.4164 17.7031 29.2617 17.8578 29.2617 18.0469V20.1094C29.2617 20.2984 29.4164 20.4531 29.6055 20.4531H40.6055C40.7945 20.4531 40.9492 20.2984 40.9492 20.1094V18.0469C40.9492 17.8578 40.7945 17.7031 40.6055 17.7031ZM34.8476 23.5469H29.6055C29.4164 23.5469 29.2617 23.7016 29.2617 23.8906V25.9531C29.2617 26.1422 29.4164 26.2969 29.6055 26.2969H34.8476C35.0367 26.2969 35.1914 26.1422 35.1914 25.9531V23.8906C35.1914 23.7016 35.0367 23.5469 34.8476 23.5469ZM20.509 13.8574H18.6484C18.382 13.8574 18.1672 14.0723 18.1672 14.3387V24.9949C18.1672 25.1496 18.2402 25.2914 18.3648 25.3816L24.7629 30.048C24.9777 30.2027 25.2785 30.1598 25.4332 29.9449L26.5375 28.4367V28.4324C26.6922 28.2176 26.6449 27.9168 26.4301 27.7621L20.9859 23.8262V14.3387C20.9902 14.0723 20.7711 13.8574 20.509 13.8574Z" fill="#BD7048"/>
<path d="M34.5813 28.9566H32.0977C31.8571 28.9566 31.6293 29.0812 31.5004 29.2875C30.9547 30.1512 30.3188 30.9504 29.5883 31.6809C28.3293 32.9398 26.8641 33.9281 25.2356 34.6156C23.5469 35.3289 21.7551 35.6898 19.9074 35.6898C18.0555 35.6898 16.2637 35.3289 14.5793 34.6156C12.9508 33.9281 11.4856 32.9398 10.2266 31.6809C8.96761 30.4219 7.97933 28.9566 7.29183 27.3281C6.57854 25.6437 6.21761 23.8519 6.21761 22C6.21761 20.148 6.57854 18.3605 7.29183 16.6719C7.97933 15.0434 8.96761 13.5781 10.2266 12.3191C11.4856 11.0602 12.9508 10.0719 14.5793 9.38438C16.2637 8.6711 18.0598 8.31016 19.9074 8.31016C21.7594 8.31016 23.5512 8.6711 25.2356 9.38438C26.8641 10.0719 28.3293 11.0602 29.5883 12.3191C30.3188 13.0496 30.9547 13.8488 31.5004 14.7125C31.6293 14.9188 31.8571 15.0434 32.0977 15.0434H34.5813C34.8778 15.0434 35.0668 14.734 34.9336 14.4719C32.1321 8.89883 26.4516 5.27657 20.1094 5.20352C10.8239 5.0875 3.11097 12.6887 3.09378 21.9656C3.07659 31.2598 10.609 38.8008 19.9032 38.8008C26.327 38.8008 32.102 35.1656 34.9336 29.5281C35.0668 29.266 34.8735 28.9566 34.5813 28.9566Z" fill="#BD7048"/>
</svg>
