<svg width="39" height="39" viewBox="0 0 39 39" fill="none" xmlns="http://www.w3.org/2000/svg">
<path d="M19.3879 3.34425C19.5891 3.09244 19.8383 2.88305 20.121 2.72819C20.4037 2.57333 20.7143 2.47609 21.0349 2.44208C21.3554 2.40808 21.6795 2.43799 21.9884 2.53009C22.2973 2.62219 22.5849 2.77464 22.8345 2.97862L30.7856 9.47212C31.2229 9.82914 31.5227 10.3269 31.6338 10.8803C31.745 11.4338 31.6605 12.0087 31.395 12.5068C30.6998 12.2944 29.9769 12.1867 29.25 12.1875H28.5187L29.2451 11.3587L25.0575 7.93893L21.6036 12.1899H18.4616L23.1684 6.39843L21.2916 4.86525L15.4464 12.1875H12.3264L19.3879 3.34425ZM25.5938 24.375C25.2705 24.375 24.9605 24.5034 24.732 24.732C24.5034 24.9605 24.375 25.2705 24.375 25.5937C24.375 25.917 24.5034 26.227 24.732 26.4555C24.9605 26.6841 25.2705 26.8125 25.5938 26.8125H28.0312C28.3545 26.8125 28.6645 26.6841 28.893 26.4555C29.1216 26.227 29.25 25.917 29.25 25.5937C29.25 25.2705 29.1216 24.9605 28.893 24.732C28.6645 24.5034 28.3545 24.375 28.0312 24.375H25.5938ZM7.3125 13.4062C7.3125 13.083 7.4409 12.773 7.66946 12.5445C7.89802 12.3159 8.20802 12.1875 8.53125 12.1875H9.89138L11.8292 9.75H8.53125C7.56155 9.75 6.63157 10.1352 5.94589 10.8209C5.26021 11.5066 4.875 12.4365 4.875 13.4062V28.0312C4.875 29.6474 5.51702 31.1974 6.65982 32.3402C7.80262 33.483 9.35259 34.125 10.9688 34.125H29.25C30.5429 34.125 31.7829 33.6114 32.6971 32.6971C33.6114 31.7829 34.125 30.5429 34.125 29.25V19.5C34.125 18.2071 33.6114 16.9671 32.6971 16.0529C31.7829 15.1386 30.5429 14.625 29.25 14.625H8.53125C8.20802 14.625 7.89802 14.4966 7.66946 14.268C7.4409 14.0395 7.3125 13.7295 7.3125 13.4062ZM7.3125 28.0312V16.8553C7.69275 16.9894 8.10469 17.0625 8.53125 17.0625H29.25C29.8965 17.0625 30.5165 17.3193 30.9736 17.7764C31.4307 18.2335 31.6875 18.8535 31.6875 19.5V29.25C31.6875 29.8965 31.4307 30.5164 30.9736 30.9736C30.5165 31.4307 29.8965 31.6875 29.25 31.6875H10.9688C9.99905 31.6875 9.06907 31.3023 8.38339 30.6166C7.69771 29.9309 7.3125 29.0009 7.3125 28.0312Z" fill="#BD7048"/>
</svg>
