<svg width="23" height="26" viewBox="0 0 23 26" fill="none" xmlns="http://www.w3.org/2000/svg">
<path d="M1.96223 10.3202C2.01005 9.72439 2.28054 9.16844 2.71982 8.76308C3.15911 8.35772 3.73497 8.13269 4.3327 8.13281H18.6673C19.265 8.13269 19.8409 8.35772 20.2802 8.76308C20.7195 9.16844 20.99 9.72439 21.0378 10.3202L21.9924 22.2082C22.0186 22.5354 21.9769 22.8644 21.8697 23.1747C21.7626 23.4849 21.5924 23.7696 21.3698 24.0108C21.1472 24.252 20.8772 24.4445 20.5765 24.5762C20.2759 24.7079 19.9513 24.776 19.6231 24.7761H3.37691C3.0487 24.776 2.72408 24.7079 2.42346 24.5762C2.12285 24.4445 1.85275 24.252 1.63019 24.0108C1.40763 23.7696 1.23742 23.4849 1.13027 23.1747C1.02312 22.8644 0.981365 22.5354 1.00762 22.2082L1.96223 10.3202V10.3202Z" stroke="#262626" stroke-width="2" stroke-linecap="round" stroke-linejoin="round"/>
<path d="M16.2552 11.6992V5.75521C16.2552 4.49405 15.7542 3.28455 14.8624 2.39277C13.9706 1.50099 12.7611 1 11.5 1C10.2388 1 9.0293 1.50099 8.13752 2.39277C7.24575 3.28455 6.74475 4.49405 6.74475 5.75521V11.6992" stroke="#262626" stroke-width="2" stroke-linecap="round" stroke-linejoin="round"/>
</svg>
