<?xml version="1.0" encoding="utf-8"?>
<!-- Generator: Adobe Illustrator 22.0.1, SVG Export Plug-In . SVG Version: 6.00 Build 0)  -->
<svg version="1.1" id="Слой_1" xmlns="http://www.w3.org/2000/svg" xmlns:xlink="http://www.w3.org/1999/xlink" x="0px" y="0px"
	 viewBox="0 0 34 38" style="enable-background:new 0 0 34 38;" xml:space="preserve">
<style type="text/css">
	.st0{fill:#F14635;}
	.st1{fill:#FFFFFF;}
</style>
<path class="st0" d="M33.6,19c0,10.4-7.5,19.2-16.8,18.8C7.9,37.4,0.2,29.1,0,19C-0.2,8.6,7.5,0.2,16.8,0.2S33.6,8.6,33.6,19z"/>
<path class="st1" d="M17.6,20.4c3,0.5,3.5,2.5,3.7,4.4v0.3v0.2l0.1,1.1c0.3,2.1,0.9,6.4,0.9,8.7c0,0.6,0,1-0.1,1.2
	c-0.1,0.4-0.5,0.7-1.1,1C19.8,37.8,18.4,38,17,38c-0.2,0-0.3,0-0.5,0c-0.6-0.2-1-0.5-1.2-0.9c-0.7-1.3-0.7-4.1-0.8-7.3v-0.4v-1
	c0-3.5,0-6.5,1.1-7.5C16.1,20.4,16.8,20.2,17.6,20.4z M11,27.9c0.7,0,1.1,3.6,1.2,6.3c0.1,1.9-0.1,2.7-0.4,3c-0.3-0.1-0.6-0.3-1-0.4
	c-0.2-0.4-0.4-1.1-0.5-2C10,32.2,10.3,28,11,27.9z M27.5,33.4c0,0.3-0.1,0.4-0.2,0.6c-0.6,0.5-1.2,1-1.8,1.4c-0.2,0-0.4,0-0.5-0.1
	c-0.8-1.6-1.1-6.6-0.3-7.1C25.8,27.5,27.7,32.5,27.5,33.4z M16.8,0c9.3,0,16.8,8.1,17,18.4v0.4v0.1c0,4.6-1.5,8.8-4,12.1
	c-0.1-0.1-0.3-0.2-0.6-0.7c-0.3-0.5-3-5.1-3-10.4c0-1,1.3-2.6,2.5-4c0.9-1.1,1.7-2.1,2-2.8c0.4-1,0.1-1.7-0.3-2
	c-0.4-0.2-1-0.1-1.4,0.8c-0.7,1.3-0.9,1.6-1.9,2.5c-1,0.9-2.5,1.8-2.5,0.6c0-0.6,0.9-2,1.3-3s0-1.7-0.9-1.7c-1.8,0-2.9,2.5-2.9,3.4
	c0,0.9,0.4,1,0.4,2S20.6,18,18.7,18c-1.8,0-2.8-0.4-3.2-1.5l-0.1-0.2l-0.1-0.4c-0.4-1.4-0.7-2.4-1.3-3.5c-0.3-0.6-0.7-1-1.1-1.3
	c-0.5-0.4-0.8-0.8-0.8-1.1C12,9.7,12,9.1,12.9,7.8c0.9-1.3,1-2.2,0.5-2.7c-0.2-0.2-0.4-0.3-0.8-0.3c-0.6,0-1.4,0.4-2.3,1.3
	C9,7.6,9.7,9.1,9.7,9.8s-0.2,1-1,1.9s-1.1,1.6-1.2,4.6c0,1.5-0.3,2.4-0.5,3.2c-0.2,0.7-0.4,1.3-0.4,2.3s0.1,1.7,0.3,2.5
	c0.2,0.7,0.4,1.5,0.5,2.9c0.2,2.1,0.1,3.9-0.2,5.7l-0.1,0.5v0.1c0,0-0.1,0.4-0.2,0.5c-4.3-3.4-7.1-8.9-7.1-15.3
	C-0.2,8.4,7.4,0,16.8,0z"/>
</svg>
