<svg width="20" height="15" viewBox="0 0 20 15" fill="none" xmlns="http://www.w3.org/2000/svg">
<path fill-rule="evenodd" clip-rule="evenodd" d="M19.0161 3.54738C19.3887 3.14752 19.5916 2.61864 19.5819 2.07216C19.5723 1.52569 19.3509 1.0043 18.9644 0.617821C18.578 0.231347 18.0566 0.00997049 17.5101 0.000328632C16.9636 -0.00931323 16.4348 0.193533 16.0349 0.566133L6.97863 9.62238L3.54738 6.19113C3.14752 5.81853 2.61864 5.61569 2.07216 5.62533C1.52569 5.63497 1.0043 5.85635 0.617823 6.24282C0.231349 6.6293 0.00997049 7.15069 0.000328632 7.69717C-0.00931323 8.24364 0.193533 8.77252 0.566133 9.17238L5.48801 14.0943C5.88352 14.4893 6.41965 14.7112 6.97863 14.7112C7.53762 14.7112 8.07375 14.4893 8.46926 14.0943L19.0161 3.54738Z" fill="#BD7048"/>
</svg>
