<?xml version="1.0" encoding="utf-8"?>
<!-- Generator: Adobe Illustrator 22.0.1, SVG Export Plug-In . SVG Version: 6.00 Build 0)  -->
<svg version="1.1" id="Слой_1" xmlns="http://www.w3.org/2000/svg" xmlns:xlink="http://www.w3.org/1999/xlink" x="0px" y="0px"
	 viewBox="0 0 23 26" style="enable-background:new 0 0 23 26;" xml:space="preserve">
<style type="text/css">
	.st0{fill:none;stroke:#BD7048;stroke-width:2;stroke-linecap:round;stroke-linejoin:round;}
</style>
<path class="st0" d="M2,10.3c0-0.6,0.3-1.2,0.8-1.6c0.4-0.4,1-0.6,1.6-0.6h14.3c0.6,0,1.2,0.2,1.6,0.6c0.4,0.4,0.7,1,0.8,1.6l1,11.9
	c0,0.3,0,0.7-0.1,1c-0.1,0.3-0.3,0.6-0.5,0.8c-0.2,0.2-0.5,0.4-0.8,0.6c-0.3,0.1-0.6,0.2-1,0.2H3.4c-0.3,0-0.7-0.1-1-0.2
	c-0.3-0.1-0.6-0.3-0.8-0.6c-0.2-0.2-0.4-0.5-0.5-0.8C1,22.9,1,22.5,1,22.2L2,10.3L2,10.3z"/>
<path class="st0" d="M16.3,11.7V5.8c0-1.3-0.5-2.5-1.4-3.4S12.8,1,11.5,1C10.2,1,9,1.5,8.1,2.4C7.2,3.3,6.7,4.5,6.7,5.8v5.9"/>
</svg>
