<svg width="24" height="24" viewBox="0 0 24 24" fill="none" xmlns="http://www.w3.org/2000/svg">
<path d="M10.554 6.24L7.17099 2.335C6.78099 1.885 6.06599 1.887 5.61299 2.341L2.83099 5.128C2.00299 5.957 1.76599 7.188 2.24499 8.175C5.10661 14.1 9.88503 18.8851 15.806 21.755C16.792 22.234 18.022 21.997 18.85 21.168L21.658 18.355C22.113 17.9 22.114 17.181 21.66 16.791L17.74 13.426C17.33 13.074 16.693 13.12 16.282 13.532L14.918 14.898C14.8482 14.9712 14.7562 15.0194 14.6563 15.0353C14.5564 15.0512 14.4541 15.0339 14.365 14.986C12.1354 13.7021 10.286 11.8502 9.00499 9.619C8.95702 9.52975 8.93964 9.42723 8.95554 9.32716C8.97144 9.22708 9.01972 9.13499 9.09299 9.065L10.453 7.704C10.865 7.29 10.91 6.65 10.554 6.239V6.24Z" stroke="black" stroke-width="2" stroke-linecap="round" stroke-linejoin="round"/>
</svg>
