<svg width="112" height="16" viewBox="0 0 112 16" fill="none" xmlns="http://www.w3.org/2000/svg">
<path d="M4.665 12.15C3.855 12.15 3.07 12.035 2.31 11.805C1.56 11.575 0.965 11.27 0.525 10.89L1.2 9.375C1.63 9.715 2.155 9.995 2.775 10.215C3.405 10.425 4.035 10.53 4.665 10.53C5.445 10.53 6.025 10.405 6.405 10.155C6.795 9.905 6.99 9.575 6.99 9.165C6.99 8.865 6.88 8.62 6.66 8.43C6.45 8.23 6.18 8.075 5.85 7.965C5.52 7.855 5.07 7.73 4.5 7.59C3.7 7.4 3.05 7.21 2.55 7.02C2.06 6.83 1.635 6.535 1.275 6.135C0.925 5.725 0.75 5.175 0.75 4.485C0.75 3.905 0.905 3.38 1.215 2.91C1.535 2.43 2.01 2.05 2.64 1.77C3.28 1.49 4.06 1.35 4.98 1.35C5.62 1.35 6.25 1.43 6.87 1.59C7.49 1.75 8.025 1.98 8.475 2.28L7.86 3.795C7.4 3.525 6.92 3.32 6.42 3.18C5.92 3.04 5.435 2.97 4.965 2.97C4.195 2.97 3.62 3.1 3.24 3.36C2.87 3.62 2.685 3.965 2.685 4.395C2.685 4.695 2.79 4.94 3 5.13C3.22 5.32 3.495 5.47 3.825 5.58C4.155 5.69 4.605 5.815 5.175 5.955C5.955 6.135 6.595 6.325 7.095 6.525C7.595 6.715 8.02 7.01 8.37 7.41C8.73 7.81 8.91 8.35 8.91 9.03C8.91 9.61 8.75 10.135 8.43 10.605C8.12 11.075 7.645 11.45 7.005 11.73C6.365 12.01 5.585 12.15 4.665 12.15ZM10.6636 3.99H12.5386V12H10.6636V3.99ZM11.6086 2.67C11.2686 2.67 10.9836 2.565 10.7536 2.355C10.5236 2.135 10.4086 1.865 10.4086 1.545C10.4086 1.225 10.5236 0.959999 10.7536 0.749999C10.9836 0.53 11.2686 0.42 11.6086 0.42C11.9486 0.42 12.2336 0.525 12.4636 0.734999C12.6936 0.935 12.8086 1.19 12.8086 1.5C12.8086 1.83 12.6936 2.11 12.4636 2.34C12.2436 2.56 11.9586 2.67 11.6086 2.67ZM25.1095 3.9C26.1195 3.9 26.9195 4.195 27.5095 4.785C28.0995 5.365 28.3945 6.24 28.3945 7.41V12H26.5195V7.65C26.5195 6.95 26.3645 6.425 26.0545 6.075C25.7445 5.715 25.2995 5.535 24.7195 5.535C24.0895 5.535 23.5845 5.745 23.2045 6.165C22.8245 6.575 22.6345 7.165 22.6345 7.935V12H20.7595V7.65C20.7595 6.95 20.6045 6.425 20.2945 6.075C19.9845 5.715 19.5395 5.535 18.9595 5.535C18.3195 5.535 17.8095 5.74 17.4295 6.15C17.0595 6.56 16.8745 7.155 16.8745 7.935V12H14.9995V3.99H16.7845V5.01C17.0845 4.65 17.4595 4.375 17.9095 4.185C18.3595 3.995 18.8595 3.9 19.4095 3.9C20.0095 3.9 20.5395 4.015 20.9995 4.245C21.4695 4.465 21.8395 4.795 22.1095 5.235C22.4395 4.815 22.8645 4.49 23.3845 4.26C23.9045 4.02 24.4795 3.9 25.1095 3.9ZM35.2305 3.9C36.0105 3.9 36.7055 4.07 37.3155 4.41C37.9355 4.75 38.4205 5.23 38.7705 5.85C39.1205 6.47 39.2955 7.185 39.2955 7.995C39.2955 8.805 39.1205 9.525 38.7705 10.155C38.4205 10.775 37.9355 11.255 37.3155 11.595C36.7055 11.935 36.0105 12.105 35.2305 12.105C34.1505 12.105 33.2955 11.745 32.6655 11.025V14.91H30.7905V3.99H32.5755V5.04C32.8855 4.66 33.2655 4.375 33.7155 4.185C34.1755 3.995 34.6805 3.9 35.2305 3.9ZM35.0205 10.5C35.7105 10.5 36.2755 10.27 36.7155 9.81C37.1655 9.35 37.3905 8.745 37.3905 7.995C37.3905 7.245 37.1655 6.64 36.7155 6.18C36.2755 5.72 35.7105 5.49 35.0205 5.49C34.5705 5.49 34.1655 5.595 33.8055 5.805C33.4455 6.005 33.1605 6.295 32.9505 6.675C32.7405 7.055 32.6355 7.495 32.6355 7.995C32.6355 8.495 32.7405 8.935 32.9505 9.315C33.1605 9.695 33.4455 9.99 33.8055 10.2C34.1655 10.4 34.5705 10.5 35.0205 10.5ZM43.7138 12.105C42.8838 12.105 42.2338 11.88 41.7638 11.43C41.3038 10.97 41.0738 10.325 41.0738 9.495V0.869999H42.9488V9.36C42.9488 10.16 43.3238 10.56 44.0738 10.56C44.3238 10.56 44.5488 10.51 44.7488 10.41L44.8388 11.91C44.4888 12.04 44.1138 12.105 43.7138 12.105ZM49.7763 10.515C50.6463 10.515 51.3713 10.225 51.9513 9.645L52.9413 10.8C52.5913 11.23 52.1413 11.555 51.5913 11.775C51.0413 11.995 50.4213 12.105 49.7313 12.105C48.8513 12.105 48.0763 11.93 47.4063 11.58C46.7363 11.23 46.2163 10.745 45.8463 10.125C45.4863 9.495 45.3063 8.785 45.3063 7.995C45.3063 7.215 45.4813 6.515 45.8313 5.895C46.1913 5.265 46.6813 4.775 47.3013 4.425C47.9313 4.075 48.6413 3.9 49.4313 3.9C50.1813 3.9 50.8613 4.065 51.4713 4.395C52.0913 4.715 52.5813 5.18 52.9413 5.79C53.3013 6.39 53.4813 7.095 53.4813 7.905L47.3463 9.105C47.5363 9.565 47.8413 9.915 48.2613 10.155C48.6813 10.395 49.1863 10.515 49.7763 10.515ZM49.4313 5.4C48.7413 5.4 48.1813 5.625 47.7513 6.075C47.3313 6.525 47.1213 7.13 47.1213 7.89V7.905L51.6513 7.035C51.5213 6.545 51.2563 6.15 50.8563 5.85C50.4663 5.55 49.9913 5.4 49.4313 5.4Z" fill="black"/>
<path d="M59.6082 1.5H64.1982C65.3182 1.5 66.3132 1.72 67.1832 2.16C68.0532 2.59 68.7282 3.205 69.2082 4.005C69.6882 4.795 69.9282 5.71 69.9282 6.75C69.9282 7.79 69.6882 8.71 69.2082 9.51C68.7282 10.3 68.0532 10.915 67.1832 11.355C66.3132 11.785 65.3182 12 64.1982 12H59.6082V1.5ZM64.1082 10.35C64.8782 10.35 65.5532 10.205 66.1332 9.915C66.7232 9.615 67.1732 9.195 67.4832 8.655C67.8032 8.105 67.9632 7.47 67.9632 6.75C67.9632 6.03 67.8032 5.4 67.4832 4.86C67.1732 4.31 66.7232 3.89 66.1332 3.6C65.5532 3.3 64.8782 3.15 64.1082 3.15H61.5582V10.35H64.1082ZM75.6308 10.515C76.5008 10.515 77.2258 10.225 77.8058 9.645L78.7958 10.8C78.4458 11.23 77.9958 11.555 77.4458 11.775C76.8958 11.995 76.2758 12.105 75.5858 12.105C74.7058 12.105 73.9308 11.93 73.2608 11.58C72.5908 11.23 72.0708 10.745 71.7008 10.125C71.3408 9.495 71.1608 8.785 71.1608 7.995C71.1608 7.215 71.3358 6.515 71.6858 5.895C72.0458 5.265 72.5358 4.775 73.1558 4.425C73.7858 4.075 74.4958 3.9 75.2858 3.9C76.0358 3.9 76.7158 4.065 77.3258 4.395C77.9458 4.715 78.4358 5.18 78.7958 5.79C79.1558 6.39 79.3358 7.095 79.3358 7.905L73.2008 9.105C73.3908 9.565 73.6958 9.915 74.1158 10.155C74.5358 10.395 75.0408 10.515 75.6308 10.515ZM75.2858 5.4C74.5958 5.4 74.0358 5.625 73.6058 6.075C73.1858 6.525 72.9758 7.13 72.9758 7.89V7.905L77.5058 7.035C77.3758 6.545 77.1108 6.15 76.7108 5.85C76.3208 5.55 75.8458 5.4 75.2858 5.4ZM83.6122 12.105C82.9622 12.105 82.3272 12.02 81.7072 11.85C81.0872 11.68 80.5922 11.465 80.2222 11.205L80.9422 9.78C81.3022 10.02 81.7322 10.215 82.2322 10.365C82.7422 10.505 83.2422 10.575 83.7322 10.575C84.8522 10.575 85.4122 10.28 85.4122 9.69C85.4122 9.41 85.2672 9.215 84.9772 9.105C84.6972 8.995 84.2422 8.89 83.6122 8.79C82.9522 8.69 82.4122 8.575 81.9922 8.445C81.5822 8.315 81.2222 8.09 80.9122 7.77C80.6122 7.44 80.4622 6.985 80.4622 6.405C80.4622 5.645 80.7772 5.04 81.4072 4.59C82.0472 4.13 82.9072 3.9 83.9872 3.9C84.5372 3.9 85.0872 3.965 85.6372 4.095C86.1872 4.215 86.6372 4.38 86.9872 4.59L86.2672 6.015C85.5872 5.615 84.8222 5.415 83.9722 5.415C83.4222 5.415 83.0022 5.5 82.7122 5.67C82.4322 5.83 82.2922 6.045 82.2922 6.315C82.2922 6.615 82.4422 6.83 82.7422 6.96C83.0522 7.08 83.5272 7.195 84.1672 7.305C84.8072 7.405 85.3322 7.52 85.7422 7.65C86.1522 7.78 86.5022 8 86.7922 8.31C87.0922 8.62 87.2422 9.06 87.2422 9.63C87.2422 10.38 86.9172 10.98 86.2672 11.43C85.6172 11.88 84.7322 12.105 83.6122 12.105ZM88.857 3.99H90.732V12H88.857V3.99ZM89.802 2.67C89.462 2.67 89.177 2.565 88.947 2.355C88.717 2.135 88.602 1.865 88.602 1.545C88.602 1.225 88.717 0.959999 88.947 0.749999C89.177 0.53 89.462 0.42 89.802 0.42C90.142 0.42 90.427 0.525 90.657 0.734999C90.887 0.935 91.002 1.19 91.002 1.5C91.002 1.83 90.887 2.11 90.657 2.34C90.437 2.56 90.152 2.67 89.802 2.67ZM101.143 3.99V10.785C101.143 13.605 99.7029 15.015 96.8229 15.015C96.0529 15.015 95.3229 14.915 94.6329 14.715C93.9429 14.525 93.3729 14.245 92.9229 13.875L93.7629 12.465C94.1129 12.755 94.5529 12.985 95.0829 13.155C95.6229 13.335 96.1679 13.425 96.7179 13.425C97.5979 13.425 98.2429 13.225 98.6529 12.825C99.0629 12.425 99.2679 11.815 99.2679 10.995V10.575C98.9479 10.925 98.5579 11.19 98.0979 11.37C97.6379 11.55 97.1329 11.64 96.5829 11.64C95.8229 11.64 95.1329 11.48 94.5129 11.16C93.9029 10.83 93.4179 10.37 93.0579 9.78C92.7079 9.19 92.5329 8.515 92.5329 7.755C92.5329 6.995 92.7079 6.325 93.0579 5.745C93.4179 5.155 93.9029 4.7 94.5129 4.38C95.1329 4.06 95.8229 3.9 96.5829 3.9C97.1629 3.9 97.6879 3.995 98.1579 4.185C98.6379 4.375 99.0379 4.665 99.3579 5.055V3.99H101.143ZM96.8679 10.05C97.5779 10.05 98.1579 9.84 98.6079 9.42C99.0679 8.99 99.2979 8.435 99.2979 7.755C99.2979 7.085 99.0679 6.54 98.6079 6.12C98.1579 5.7 97.5779 5.49 96.8679 5.49C96.1479 5.49 95.5579 5.7 95.0979 6.12C94.6479 6.54 94.4229 7.085 94.4229 7.755C94.4229 8.435 94.6479 8.99 95.0979 9.42C95.5579 9.84 96.1479 10.05 96.8679 10.05ZM108.153 3.9C109.163 3.9 109.973 4.195 110.583 4.785C111.193 5.375 111.498 6.25 111.498 7.41V12H109.623V7.65C109.623 6.95 109.458 6.425 109.128 6.075C108.798 5.715 108.328 5.535 107.718 5.535C107.028 5.535 106.483 5.745 106.083 6.165C105.683 6.575 105.483 7.17 105.483 7.95V12H103.608V3.99H105.393V5.025C105.703 4.655 106.093 4.375 106.563 4.185C107.033 3.995 107.563 3.9 108.153 3.9Z" fill="#BD7048"/>
</svg>
